# xmcd
#
# Track frame offsets: 
#        150
#        9937
#        23737
#        35287
#        47387
#        54588
#        65100
#        75975
#        88625
#        99125
#        110575
#        124275
#        136112
#        145575
#        161112
#
# Disc length: 2395 seconds
#
# Revision: 5
# Processed by: cddbd v1.5.2PL0 Copyright (c) Steve Scherf et al.
# Submitted via: ExactAudioCopyFreeDBPlugin 1.0
#
DISCID=b309590f
DTITLE=Various Artist - Country and Western Vol. 2
DYEAR=2001
DGENRE=Country
TTITLE0=Dolly Parton - Release Me
TTITLE1=Willie Nelson - Home Is Where You're Happy
TTITLE2=Patsy Cline - I've Loved And Lost Again
TTITLE3=Waylon Jennings - Don't Think Twice, It's Allright
TTITLE4=Conway Twitty - Treat me Mean, Treat Me Cruel
TTITLE5=Carl Perkins - What Am I Living For
TTITLE6=Stonewall Jackson - Let The Sun Shine On The People
TTITLE7=The Oakridgr Boys - We'll Never Walk Alone
TTITLE8=Fertin Husky - Wings Of A Dove
TTITLE9=George Jones - I Can't Change Overnight
TTITLE10=Freddy Fender - Baby I Want To Love You
TTITLE11=The Oakridge Boys - Time Has Made A Change To Me
TTITLE12=Willie Nelson - Building Heartaches
TTITLE13=Gene Parsons - Way Out There
TTITLE14=Blackwater Band - Lighthouse Bar
EXTD=\nYEAR: 2001  ID3G:   2
EXTT0=
EXTT1=
EXTT2=
EXTT3=
EXTT4=
EXTT5=
EXTT6=
EXTT7=
EXTT8=
EXTT9=
EXTT10=
EXTT11=
EXTT12=
EXTT13=
EXTT14=
PLAYORDER=
